<svg width="594" height="61" viewBox="0 0 594 61" fill="none" xmlns="http://www.w3.org/2000/svg">
<g filter="url(#filter0_d_58_245)">
<path d="M4.68 52V1.24H29.304C34.968 1.24 39.312 2.416 42.336 4.768C45.408 7.12 46.944 10.312 46.944 14.344C46.944 17.32 46.056 19.864 44.28 21.976C42.552 24.088 40.176 25.528 37.152 26.296V25.144C40.752 25.768 43.512 27.16 45.432 29.32C47.4 31.432 48.384 34.192 48.384 37.6C48.384 42.064 46.752 45.592 43.488 48.184C40.224 50.728 35.76 52 30.096 52H4.68ZM17.424 42.28H28.368C30.864 42.28 32.712 41.824 33.912 40.912C35.16 40 35.784 38.584 35.784 36.664C35.784 34.696 35.16 33.28 33.912 32.416C32.712 31.552 30.864 31.12 28.368 31.12H17.424V42.28ZM17.424 21.4H26.856C29.4 21.4 31.248 20.968 32.4 20.104C33.6 19.24 34.2 17.92 34.2 16.144C34.2 14.368 33.6 13.072 32.4 12.256C31.248 11.392 29.4 10.96 26.856 10.96H17.424V21.4ZM55.1644 52V1.24H91.5964V11.392H67.9084V21.112H89.8684V31.336H67.9084V41.776H91.5964V52H55.1644ZM98.5472 52V1.24H108.339L134.043 33.136H131.955V1.24H144.267V52H134.475L108.915 20.104H111.003V52H98.5472Z" fill="url(#paint0_linear_58_245)"/>
<path d="M199.902 52.792C194.382 52.792 189.606 51.712 185.574 49.552C181.59 47.392 178.494 44.344 176.286 40.408C174.126 36.472 173.046 31.864 173.046 26.584C173.046 21.304 174.126 16.72 176.286 12.832C178.494 8.896 181.59 5.848 185.574 3.688C189.606 1.528 194.382 0.447999 199.902 0.447999C203.406 0.447999 206.598 0.927998 209.478 1.888C212.358 2.8 214.782 4.12 216.75 5.848L212.79 16.288C210.582 14.704 208.542 13.6 206.67 12.976C204.846 12.304 202.758 11.968 200.406 11.968C196.086 11.968 192.75 13.24 190.398 15.784C188.094 18.28 186.942 21.88 186.942 26.584C186.942 31.336 188.094 34.984 190.398 37.528C192.75 40.024 196.086 41.272 200.406 41.272C202.758 41.272 204.846 40.96 206.67 40.336C208.542 39.664 210.582 38.536 212.79 36.952L216.75 47.392C214.782 49.12 212.358 50.464 209.478 51.424C206.598 52.336 203.406 52.792 199.902 52.792ZM223.703 52V1.24H247.679C253.535 1.24 258.047 2.632 261.215 5.416C264.431 8.2 266.039 12.064 266.039 17.008C266.039 20.32 265.319 23.152 263.879 25.504C262.439 27.808 260.351 29.608 257.615 30.904C254.879 32.152 251.615 32.776 247.823 32.776L248.471 30.976H252.071C254.183 30.976 256.055 31.552 257.687 32.704C259.319 33.856 260.663 35.464 261.719 37.528L269.423 52H254.879L246.599 35.8C246.071 34.744 245.279 34.024 244.223 33.64C243.215 33.256 242.063 33.064 240.767 33.064H237.023V52H223.703ZM237.023 23.632H245.375C247.967 23.632 249.935 23.128 251.279 22.12C252.623 21.064 253.295 19.504 253.295 17.44C253.295 15.424 252.623 13.912 251.279 12.904C249.935 11.896 247.967 11.392 245.375 11.392H237.023V23.632ZM275.032 52V1.24H311.464V11.392H287.776V21.112H309.736V31.336H287.776V41.776H311.464V52H275.032ZM311.377 52L335.137 1.24H345.937L369.841 52H356.521L350.401 38.032L355.513 41.704H325.705L330.745 38.032L324.697 52H311.377ZM340.465 14.92L332.041 35.008L330.025 31.624H351.121L349.321 35.008L340.825 14.92H340.465ZM378.874 52V11.968H363.466V1.24H407.602V11.968H392.194V52H378.874ZM413.196 52V1.24H426.516V52H413.196ZM493.774 52V1.24H503.566L529.27 33.136H527.182V1.24H539.494V52H529.702L504.142 20.104H506.23V52H493.774ZM567.908 52.792C563.828 52.792 559.94 52.312 556.244 51.352C552.596 50.344 549.524 49 547.028 47.32L550.772 37.024C552.356 38.032 554.084 38.896 555.956 39.616C557.828 40.336 559.772 40.912 561.788 41.344C563.852 41.728 565.94 41.92 568.052 41.92C571.22 41.92 573.404 41.512 574.604 40.696C575.852 39.88 576.476 38.824 576.476 37.528C576.476 36.376 576.068 35.488 575.252 34.864C574.436 34.192 572.9 33.616 570.644 33.136L561.86 31.336C557.204 30.376 553.724 28.72 551.42 26.368C549.116 23.968 547.964 20.848 547.964 17.008C547.964 13.648 548.852 10.744 550.628 8.296C552.452 5.8 554.996 3.88 558.26 2.536C561.524 1.144 565.34 0.447999 569.708 0.447999C573.308 0.447999 576.692 0.951998 579.86 1.96C583.028 2.92 585.62 4.264 587.636 5.992L583.892 15.64C581.972 14.248 579.812 13.192 577.412 12.472C575.012 11.704 572.348 11.32 569.42 11.32C566.636 11.32 564.524 11.752 563.084 12.616C561.692 13.432 560.996 14.608 560.996 16.144C560.996 17.2 561.404 18.112 562.22 18.88C563.084 19.6 564.644 20.2 566.9 20.68L575.54 22.408C580.196 23.32 583.676 24.952 585.98 27.304C588.332 29.656 589.508 32.728 589.508 36.52C589.508 39.784 588.596 42.64 586.772 45.088C584.996 47.536 582.5 49.432 579.284 50.776C576.068 52.12 572.276 52.792 567.908 52.792Z" fill="white"/>
<path d="M434.539 26.584C434.539 21.304 435.571 16.72 437.635 12.832C439.699 8.896 442.651 5.848 446.491 3.688C450.331 1.528 454.867 0.447999 460.099 0.447999C465.379 0.447999 469.939 1.528 473.779 3.688C477.619 5.848 480.571 8.896 482.635 12.832C484.747 16.72 485.803 21.304 485.803 26.584C485.803 31.816 484.747 36.4 482.635 40.336C480.571 44.272 477.619 47.344 473.779 49.552C469.939 51.712 465.379 52.792 460.099 52.792C454.867 52.792 450.331 51.712 446.491 49.552C442.699 47.344 439.747 44.272 437.635 40.336C435.571 36.4 434.539 31.816 434.539 26.584ZM448.435 26.584C448.435 31.336 449.395 35.056 451.315 37.744C453.235 40.384 456.163 41.704 460.099 41.704C464.035 41.704 466.987 40.384 468.955 37.744C470.923 35.056 471.907 31.336 471.907 26.584C471.907 21.832 470.923 18.136 468.955 15.496C466.987 12.856 464.035 11.536 460.099 11.536C456.163 11.536 453.235 12.856 451.315 15.496C449.395 18.088 448.435 21.784 448.435 26.584Z" fill="#3DADEF"/>
</g>
<defs>
<filter id="filter0_d_58_245" x="0.680176" y="0.447998" width="592.828" height="60.344" filterUnits="userSpaceOnUse" color-interpolation-filters="sRGB">
<feFlood flood-opacity="0" result="BackgroundImageFix"/>
<feColorMatrix in="SourceAlpha" type="matrix" values="0 0 0 0 0 0 0 0 0 0 0 0 0 0 0 0 0 0 127 0" result="hardAlpha"/>
<feOffset dy="4"/>
<feGaussianBlur stdDeviation="2"/>
<feComposite in2="hardAlpha" operator="out"/>
<feColorMatrix type="matrix" values="0 0 0 0 0 0 0 0 0 0 0 0 0 0 0 0 0 0 0.25 0"/>
<feBlend mode="normal" in2="BackgroundImageFix" result="effect1_dropShadow_58_245"/>
<feBlend mode="normal" in="SourceGraphic" in2="effect1_dropShadow_58_245" result="shape"/>
</filter>
<linearGradient id="paint0_linear_58_245" x1="7.0161e-06" y1="24.5" x2="356.013" y2="24.5" gradientUnits="userSpaceOnUse">
<stop/>
<stop offset="0.355" stop-color="#005B91"/>
<stop offset="0.855" stop-color="#00A0FF"/>
</linearGradient>
</defs>
</svg>
